HIERARCHY
ROOT Hips
{
  OFFSET -33.9132 29.2015 117.021
  CHANNELS 6 Xposition Yposition Zposition Zrotation Xrotation Yrotation
  JOINT LeftUpLeg
  {
    OFFSET 8.64259 1.95398 -2.38835
    CHANNELS 3 Zrotation Xrotation Yrotation
    JOINT LeftLeg
    {
      OFFSET 43.7702 0 0
      CHANNELS 3 Zrotation Xrotation Yrotation
      JOINT LeftFoot
      {
        OFFSET 40.6238 0 0
        CHANNELS 3 Zrotation Xrotation Yrotation
        JOINT LeftToeBase
        {
          OFFSET 12.7242 0 0
          CHANNELS 3 Zrotation Xrotation Yrotation
          End Site
          {
            OFFSET 0 0 0
          }
        }
      }
    }
  }
  JOINT RightUpLeg
  {
    OFFSET -8.2249 1.95398 -2.59336
    CHANNELS 3 Zrotation Xrotation Yrotation
    JOINT RightLeg
    {
      OFFSET 43.5653 0 0
      CHANNELS 3 Zrotation Xrotation Yrotation
      JOINT RightFoot
      {
        OFFSET 40.6238 0 0
        CHANNELS 3 Zrotation Xrotation Yrotation
        JOINT RightToeBase
        {
          OFFSET 12.7242 0 0
          CHANNELS 3 Zrotation Xrotation Yrotation
          End Site
          {
            OFFSET 0 0 0
          }
        }
      }
    }
  }
  JOINT Spine
  {
    OFFSET 0.165834 0.87714 6.61349
    CHANNELS 3 Zrotation Xrotation Yrotation
    JOINT Spine1
    {
      OFFSET 7.38963 1.71661e-005 0
      CHANNELS 3 Zrotation Xrotation Yrotation
      JOINT Spine2
      {
        OFFSET 11.9445 1.14441e-005 0
        CHANNELS 3 Zrotation Xrotation Yrotation
        JOINT Spine3
        {
          OFFSET 14.7254 4.19617e-005 0
          CHANNELS 3 Zrotation Xrotation Yrotation
          JOINT Spine4
          {
            OFFSET 10.9679 0 0
            CHANNELS 3 Zrotation Xrotation Yrotation
            JOINT RightShoulder
            {
              OFFSET 2.46616 -1.6653 3.69651
              CHANNELS 3 Zrotation Xrotation Yrotation
              JOINT RightArm
              {
                OFFSET 13.0012 0 0
                CHANNELS 3 Zrotation Xrotation Yrotation
                JOINT RightForeArm
                {
                  OFFSET 28.7848 1.62311e-005 0
                  CHANNELS 3 Zrotation Xrotation Yrotation
                  JOINT RightHand
                  {
                    OFFSET 26.5688 1.62095e-005 0
                    CHANNELS 3 Zrotation Xrotation Yrotation
                    End Site
                    {
                      OFFSET 0 0 0
                    }
                  }
                }
              }
            }
            JOINT LeftShoulder
            {
              OFFSET 2.38034 -1.29275 -3.7523
              CHANNELS 3 Zrotation Xrotation Yrotation
              JOINT LeftArm
              {
                OFFSET 16.3182 6.07031e-005 0
                CHANNELS 3 Zrotation Xrotation Yrotation
                JOINT LeftForeArm
                {
                  OFFSET 27.0901 0 0
                  CHANNELS 3 Zrotation Xrotation Yrotation
                  JOINT LeftHand
                  {
                    OFFSET 24.5451 1.51738e-005 0
                    CHANNELS 3 Zrotation Xrotation Yrotation
                    End Site
                    {
                      OFFSET 0 0 0
                    }
                  }
                }
              }
            }
            JOINT Neck
            {
              OFFSET 5.0226 -0.0266342 0
              CHANNELS 3 Zrotation Xrotation Yrotation
              JOINT Head
              {
                OFFSET 6.69364 2.86102e-005 0
                CHANNELS 3 Zrotation Xrotation Yrotation
                End Site
                {
                  OFFSET 0 0 0
                }
              }
            }
          }
        }
      }
    }
  }
}
MOTION
Frames:	7
Frame Time:	0.0416667
-319.938 82.7076 327.4 69.703 46.7036 96.8216 -164.196 52.1137 73.2428 -56.1069 10.8971 -6.39364 77.9253 10.9427 0.0201939 15.5869 -5.76873 -0.92706 172.102 -7.63486 84.9645 -38.5177 -15.8519 -3.99448 57.461 1.50138 -0.578958 78.9718 -18.0829 14.5763 2.2877 8.14245 -88.6381 10.539 5.18199 2.24327 -1.12313 5.27567 2.01254 -23.7034 4.26835 3.69837 -3.69077 4.26836 3.69837 93.7202 -14.9863 -104.675 39.2787 1.9746 -36.2022 -4.17685 -19.2606 -4.9462 -23.0234 4.66222 -28.4539 -88.2527 -36.7148 78.4885 -19.142 -7.40452 13.8699 -7.31161 41.8992 -3.33083 18.3965 -3.83741 -22.5761 39.9618 -9.53541 -3.46663 -10.0485 -7.28457 -0.0860004 
-312.439 81.8593 319.82 72.5973 50.8563 94.3522 -166.73 43.6584 73.8574 -60.9208 11.5456 -4.77381 86.3186 17.0168 0.0152933 24.9592 -1.54524 -0.446788 172.727 -0.884988 88.9229 -61.3986 -18.5454 -4.06377 60.4212 -0.492354 -2.24384 83.6272 -21.2249 8.49334 1.69121 8.44954 -88.5327 9.92488 4.03696 2.58419 -1.742 4.14674 2.40388 -24.2888 3.07414 3.67786 -4.27616 3.07414 3.67785 91.7914 -19.9683 -107.122 43.1426 1.9586 -26.4829 -4.50529 -28.3811 -5.06817 -20.7121 4.36125 -29.4859 -88.76 -42.0609 78.9119 -19.8842 -6.57103 -1.18887 -5.65069 42.4092 -6.15766 22.5258 -5.82787 -27.0888 40.043 -10.6878 -6.63413 -7.41368 -6.84421 0.182802 
-305.183 81.7728 311.902 73.7005 53.5089 92.6242 -169.37 33.3944 75.1968 -60.1495 7.77212 -3.7417 97.1354 21.204 -7.30672 27.9407 -0.621424 0.569526 175.113 16.089 83.5681 -83.6196 -8.94333 -4.35499 68.3769 -7.00163 -5.50985 75.1538 -19.6727 2.25286 1.25069 8.6358 -88.3498 9.549 3.23753 3.02425 -2.12106 3.36745 2.87885 -24.6452 2.17968 3.8567 -4.63256 2.17969 3.8567 91.3962 -23.9848 -106.243 49.4349 2.96208 -11.6404 -4.75079 -32.9725 -5.16425 -20.6828 3.953 -27.4121 -90.2607 -46.5626 77.5641 -17.996 -2.57503 -23.7904 -3.21372 46.8527 -10.2418 28.8494 -6.19906 -22.5539 38.4763 -11.0948 -8.87812 -5.30356 -6.25139 -0.549732 
-297.803 81.8486 304.127 76.4442 53.7559 93.1282 -171.096 21.2846 81.0738 -55.8989 7.23734 -2.5144 106.26 24.0508 -13.6911 30.2253 -1.00416 4.08885 179.302 33.396 88.6955 -95.8643 0.227602 -4.7068 74.5576 -11.9716 -6.65385 58.6293 -13.0391 0.141514 0.820715 8.70399 -88.6226 9.42971 2.25599 2.55739 -2.24148 2.36633 2.45566 -24.7642 1.38352 3.11675 -4.75152 1.38351 3.11675 92.569 -24.9118 -103.329 54.1025 6.55932 5.01569 -5.25797 -41.3871 -5.4244 -23.0648 4.36429 -26.9603 -90.1872 -43.9387 77.0458 -16.1057 1.77173 -43.6363 5.31615 48.2589 -21.2193 24.6843 -4.40038 -19.511 34.787 -9.32526 -10.5079 -3.01184 -4.20805 -1.39149 
-290.009 82.2331 296.506 74.727 57.5096 100.268 -172.435 10.9423 89.4756 -47.5129 10.2126 -0.14081 110.493 28.0043 -14.024 29.6461 -2.24839 6.33122 177.414 49.7817 93.337 -93.9497 2.96947 -3.74485 80.3957 -14.6111 -5.58295 35.1894 -3.65123 4.26327 -0.441686 8.42989 -89.4345 10.016 -0.622926 1.17383 -1.65533 -0.570657 1.20011 -24.1888 -0.946916 0.932377 -4.1761 -0.946898 0.93238 93.6453 -21.9955 -101.982 53.5139 11.5269 19.9841 -5.8918 -49.6373 -5.83402 -25.9155 5.52259 -29.4665 -88.4439 -35.7889 77.9144 -12.489 2.6796 -55.8191 11.239 45.2105 -29.5208 33.5309 -9.36343 -28.3942 31.8335 -5.67445 -11.8089 -4.46688 -0.487612 0.634613 
-280.772 85.1594 286.045 75.8597 55.7948 103.503 -171.259 -1.09813 96.5084 -33.0426 18.4805 1.00946 87.6814 22.018 1.01709 47.0073 6.23099 6.50383 178.069 55.7133 94.9431 -76.3289 0.640568 -2.52397 80.5029 -12.9412 -3.02463 18.3626 2.66672 6.25196 -1.44408 8.07826 -90.1339 10.7208 -2.93749 0.00246475 -0.946707 -2.93454 0.131844 -23.5075 -2.8023 -0.881212 -3.49484 -2.8023 -0.881215 93.6926 -18.5131 -103.206 46.1283 15.2699 32.5618 -9.19907 -53.4632 -9.7544 -26.9143 7.18253 -35.3516 -86.0814 -28.0659 80.3654 -11.7231 0.559419 -56.188 14.7634 43.2462 -32.9177 43.0737 -17.0531 -39.0462 29.3628 0.614345 -10.6513 -9.03777 4.72723 1.67945 
-269.598 88.9423 273.431 79.4319 49.9521 105.093 -170.733 -13.0753 97.4071 -25.3718 20.6345 3.21913 59.6097 1.57679 4.86629 42.0203 7.57237 -3.68791 179.78 50.7293 98.7368 -50.848 -4.50394 -0.787127 75.1315 -9.1404 -0.486092 22.6961 0.755509 6.69799 -1.71575 7.93492 -90.9579 10.9853 -3.85958 -1.5408 -0.68059 -3.92363 -1.36924 -23.2434 -3.21804 -2.63021 -3.23074 -3.21803 -2.63022 93.2417 -15.7415 -105.552 41.0587 15.2911 48.3353 -29.1483 -47.4632 -35.7839 -24.6776 6.43164 -34.8207 -84.8049 -23.9261 81.9406 -10.0753 2.80858 -49.5973 19.8947 41.3304 -38.1962 41.1117 -18.7516 -44.3408 29.9008 6.30373 -7.25276 -15.5159 8.69458 2.00813 
